<svg xmlns="http://www.w3.org/2000/svg" width="595.28" height="841.89" viewBox="0 0 595.28 841.89"><defs><style>.a,.b{fill:none;stroke:#3cc;stroke-miterlimit:10;}.a{stroke-width:0.28px;}.b{stroke-width:0.57px;}</style></defs><line class="a" x1="42.52" y1="63.78" x2="552.76" y2="63.78"/><line class="a" x1="42.52" y1="80.79" x2="552.76" y2="80.79"/><line class="a" x1="42.52" y1="97.8" x2="552.76" y2="97.8"/><line class="a" x1="42.52" y1="114.8" x2="552.76" y2="114.8"/><line class="a" x1="42.52" y1="131.81" x2="552.76" y2="131.81"/><line class="a" x1="42.52" y1="148.82" x2="552.76" y2="148.82"/><line class="a" x1="42.52" y1="165.83" x2="552.76" y2="165.83"/><line class="a" x1="42.52" y1="182.83" x2="552.76" y2="182.83"/><line class="a" x1="42.52" y1="199.84" x2="552.76" y2="199.84"/><line class="a" x1="42.52" y1="216.85" x2="552.76" y2="216.85"/><line class="a" x1="42.52" y1="233.86" x2="552.76" y2="233.86"/><line class="a" x1="42.52" y1="250.87" x2="552.76" y2="250.87"/><line class="a" x1="42.52" y1="267.87" x2="552.76" y2="267.87"/><line class="a" x1="42.52" y1="284.88" x2="552.76" y2="284.88"/><line class="a" x1="42.52" y1="301.89" x2="552.76" y2="301.89"/><line class="a" x1="42.52" y1="318.9" x2="552.76" y2="318.9"/><line class="a" x1="42.52" y1="335.91" x2="552.76" y2="335.91"/><line class="a" x1="42.52" y1="352.91" x2="552.76" y2="352.91"/><line class="a" x1="42.52" y1="369.92" x2="552.76" y2="369.92"/><line class="a" x1="42.52" y1="386.93" x2="552.76" y2="386.93"/><line class="a" x1="42.52" y1="403.94" x2="552.76" y2="403.94"/><line class="a" x1="42.52" y1="420.94" x2="552.76" y2="420.94"/><line class="a" x1="42.52" y1="437.95" x2="552.76" y2="437.95"/><line class="a" x1="42.52" y1="454.96" x2="552.76" y2="454.96"/><line class="a" x1="42.52" y1="471.97" x2="552.76" y2="471.97"/><line class="a" x1="42.52" y1="488.98" x2="552.76" y2="488.98"/><line class="a" x1="42.52" y1="505.98" x2="552.76" y2="505.98"/><line class="a" x1="42.52" y1="522.99" x2="552.76" y2="522.99"/><line class="a" x1="42.52" y1="540" x2="552.76" y2="540"/><line class="a" x1="42.52" y1="557.01" x2="552.76" y2="557.01"/><line class="a" x1="42.52" y1="574.02" x2="552.76" y2="574.02"/><line class="a" x1="42.52" y1="591.02" x2="552.76" y2="591.02"/><line class="a" x1="42.52" y1="608.03" x2="552.76" y2="608.03"/><line class="a" x1="42.52" y1="625.04" x2="552.76" y2="625.04"/><line class="a" x1="42.52" y1="642.05" x2="552.76" y2="642.05"/><line class="a" x1="42.52" y1="659.06" x2="552.76" y2="659.06"/><line class="a" x1="42.52" y1="676.06" x2="552.76" y2="676.06"/><line class="a" x1="42.52" y1="693.07" x2="552.76" y2="693.07"/><line class="a" x1="42.52" y1="710.08" x2="552.76" y2="710.08"/><line class="a" x1="42.52" y1="727.09" x2="552.76" y2="727.09"/><line class="a" x1="42.52" y1="744.09" x2="552.76" y2="744.09"/><line class="a" x1="42.52" y1="761.1" x2="552.76" y2="761.1"/><line class="a" x1="42.52" y1="778.11" x2="552.76" y2="778.11"/><line class="b" x1="42.52" y1="43.94" x2="552.76" y2="43.94"/><line class="b" x1="42.52" y1="46.77" x2="552.76" y2="46.77"/><line class="b" x1="62.36" y1="43.37" x2="62.36" y2="42.24"/><line class="b" x1="82.2" y1="43.37" x2="82.2" y2="42.24"/><line class="b" x1="102.05" y1="43.37" x2="102.05" y2="42.24"/><line class="b" x1="121.89" y1="43.37" x2="121.89" y2="42.24"/><line class="b" x1="141.73" y1="43.37" x2="141.73" y2="42.24"/><line class="b" x1="161.57" y1="43.37" x2="161.57" y2="42.24"/><line class="b" x1="181.42" y1="43.37" x2="181.42" y2="42.24"/><line class="b" x1="201.26" y1="43.37" x2="201.26" y2="42.24"/><line class="b" x1="221.1" y1="43.37" x2="221.1" y2="42.24"/><line class="b" x1="240.94" y1="43.37" x2="240.94" y2="42.24"/><line class="b" x1="260.79" y1="43.37" x2="260.79" y2="42.24"/><line class="b" x1="280.63" y1="43.37" x2="280.63" y2="42.24"/><line class="b" x1="300.47" y1="43.37" x2="300.47" y2="42.24"/><line class="b" x1="320.31" y1="43.37" x2="320.31" y2="42.24"/><line class="b" x1="340.16" y1="43.37" x2="340.16" y2="42.24"/><line class="b" x1="360" y1="43.37" x2="360" y2="42.24"/><line class="b" x1="379.84" y1="43.37" x2="379.84" y2="42.24"/><line class="b" x1="399.69" y1="43.37" x2="399.69" y2="42.24"/><line class="b" x1="419.53" y1="43.37" x2="419.53" y2="42.24"/><line class="b" x1="439.37" y1="43.37" x2="439.37" y2="42.24"/><line class="b" x1="459.21" y1="43.37" x2="459.21" y2="42.24"/><line class="b" x1="479.06" y1="43.37" x2="479.06" y2="42.24"/><line class="b" x1="498.9" y1="43.37" x2="498.9" y2="42.24"/><line class="b" x1="518.74" y1="43.37" x2="518.74" y2="42.24"/><line class="b" x1="538.58" y1="43.37" x2="538.58" y2="42.24"/><line class="b" x1="42.52" y1="795.12" x2="552.76" y2="795.12"/><line class="b" x1="42.52" y1="797.95" x2="552.76" y2="797.95"/><line class="b" x1="62.36" y1="798.52" x2="62.36" y2="799.65"/><line class="b" x1="82.2" y1="798.52" x2="82.2" y2="799.65"/><line class="b" x1="102.05" y1="798.52" x2="102.05" y2="799.65"/><line class="b" x1="121.89" y1="798.52" x2="121.89" y2="799.65"/><line class="b" x1="141.73" y1="798.52" x2="141.73" y2="799.65"/><line class="b" x1="161.57" y1="798.52" x2="161.57" y2="799.65"/><line class="b" x1="181.42" y1="798.52" x2="181.42" y2="799.65"/><line class="b" x1="201.26" y1="798.52" x2="201.26" y2="799.65"/><line class="b" x1="221.1" y1="798.52" x2="221.1" y2="799.65"/><line class="b" x1="240.94" y1="798.52" x2="240.94" y2="799.65"/><line class="b" x1="260.79" y1="798.52" x2="260.79" y2="799.65"/><line class="b" x1="280.63" y1="798.52" x2="280.63" y2="799.65"/><line class="b" x1="300.47" y1="798.52" x2="300.47" y2="799.65"/><line class="b" x1="320.31" y1="798.52" x2="320.31" y2="799.65"/><line class="b" x1="340.16" y1="798.52" x2="340.16" y2="799.65"/><line class="b" x1="360" y1="798.52" x2="360" y2="799.65"/><line class="b" x1="379.84" y1="798.52" x2="379.84" y2="799.65"/><line class="b" x1="399.69" y1="798.52" x2="399.69" y2="799.65"/><line class="b" x1="419.53" y1="798.52" x2="419.53" y2="799.65"/><line class="b" x1="439.37" y1="798.52" x2="439.37" y2="799.65"/><line class="b" x1="459.21" y1="798.52" x2="459.21" y2="799.65"/><line class="b" x1="479.06" y1="798.52" x2="479.06" y2="799.65"/><line class="b" x1="498.9" y1="798.52" x2="498.9" y2="799.65"/><line class="b" x1="518.74" y1="798.52" x2="518.74" y2="799.65"/><line class="b" x1="538.58" y1="798.52" x2="538.58" y2="799.65"/></svg>